<mxfile host="Electron" agent="Mozilla/5.0 (Windows NT 10.0; Win64; x64) AppleWebKit/537.36 (KHTML, like Gecko) draw.io/24.7.17 Chrome/128.0.6613.36 Electron/32.0.1 Safari/537.36" version="24.7.17">
  <diagram name="PÃ¡gina-1" id="1FVBq4YG4p7qoFzYaBty">
    <mxGraphModel dx="1674" dy="844" grid="1" gridSize="10" guides="1" tooltips="1" connect="1" arrows="1" fold="1" page="1" pageScale="1" pageWidth="827" pageHeight="1169" math="0" shadow="0">
      <root>
        <mxCell id="0" />
        <mxCell id="1" parent="0" />
        <mxCell id="dNBym5WfTaueK1b-o3n0-7" value="&lt;b&gt;Solicitacao Calculo&lt;/b&gt;&lt;div&gt;&lt;br&gt;&lt;/div&gt;&lt;div&gt;id_solicitacao_calculo: string, obg, pk&lt;/div&gt;&lt;div&gt;id_template_calculo: string, obg, fk&lt;/div&gt;&lt;div&gt;ds_chave_busca: string, obg&lt;br&gt;&lt;/div&gt;&lt;div&gt;&lt;br&gt;&lt;/div&gt;&lt;div&gt;id_usuario_criacao: int, obg, fk&lt;/div&gt;&lt;div&gt;dt_criacao: date, obg&lt;/div&gt;&lt;div&gt;id_usuario_alteracao: int, fk&lt;/div&gt;&lt;div&gt;dt_alteracao: date&lt;/div&gt;&lt;div&gt;&lt;span style=&quot;background-color: initial;&quot;&gt;id_usuario_exclusao: int, fk&lt;/span&gt;&lt;br&gt;&lt;/div&gt;&lt;div&gt;dt_exclusao: date&lt;/div&gt;&lt;div&gt;&lt;br&gt;&lt;/div&gt;&lt;div&gt;&lt;div&gt;dados: json, obg&lt;/div&gt;&lt;div&gt;parametros: json&lt;/div&gt;&lt;/div&gt;" style="rounded=0;whiteSpace=wrap;html=1;align=left;" vertex="1" parent="1">
          <mxGeometry x="290" y="75" width="220" height="235" as="geometry" />
        </mxCell>
        <mxCell id="dNBym5WfTaueK1b-o3n0-8" value="&lt;b&gt;Resultado Calculo&lt;/b&gt;&lt;div&gt;&lt;br&gt;&lt;/div&gt;&lt;div&gt;id_resultado_calculo: string, obg, pk&lt;/div&gt;&lt;div&gt;id_solicitacao_calculo: string, obg, fk&lt;/div&gt;&lt;div&gt;&lt;br&gt;&lt;/div&gt;&lt;div&gt;&lt;div&gt;id_usuario_criacao: int, obg, fk&lt;/div&gt;&lt;div&gt;dt_criacao: date, obg&lt;/div&gt;&lt;div&gt;id_usuario_alteracao: int, fk&lt;/div&gt;&lt;div&gt;dt_alteracao: date&lt;/div&gt;&lt;div&gt;&lt;span style=&quot;background-color: initial;&quot;&gt;id_usuario_exclusao: int, fk&lt;/span&gt;&lt;br&gt;&lt;/div&gt;&lt;div&gt;dt_exclusao: date&lt;/div&gt;&lt;/div&gt;&lt;div&gt;&lt;br&gt;&lt;/div&gt;&lt;div&gt;&lt;div&gt;resultado: json, obg&lt;/div&gt;&lt;/div&gt;" style="rounded=0;whiteSpace=wrap;html=1;align=left;" vertex="1" parent="1">
          <mxGeometry x="570" y="75" width="210" height="205" as="geometry" />
        </mxCell>
        <mxCell id="dNBym5WfTaueK1b-o3n0-9" value="&lt;b&gt;Template Calculo&lt;/b&gt;&lt;div&gt;&lt;br&gt;&lt;/div&gt;&lt;div&gt;id_template_calculo: string, obg, pk&lt;/div&gt;&lt;div&gt;id_grupo_calculo: int, obg, fk&lt;/div&gt;&lt;div&gt;id_template_calculo_origem: string, fk&lt;/div&gt;&lt;div&gt;&lt;br&gt;&lt;/div&gt;&lt;div&gt;id_usuario_criacao: int, obg, fk&lt;/div&gt;&lt;div&gt;dt_criacao: date, obg&lt;/div&gt;&lt;div&gt;&lt;span style=&quot;background-color: initial;&quot;&gt;id_usuario_exclusao: int, fk&lt;/span&gt;&lt;br&gt;&lt;/div&gt;&lt;div&gt;dt_exclusao: date&lt;/div&gt;&lt;div&gt;&lt;br&gt;&lt;/div&gt;&lt;div&gt;&lt;div&gt;dados: json, obg&lt;/div&gt;&lt;div&gt;parametros: json&lt;/div&gt;&lt;/div&gt;&lt;div&gt;resultado: json, obg&lt;/div&gt;" style="rounded=0;whiteSpace=wrap;html=1;align=left;" vertex="1" parent="1">
          <mxGeometry x="20" y="75" width="220" height="225" as="geometry" />
        </mxCell>
        <mxCell id="dNBym5WfTaueK1b-o3n0-10" value="&lt;b&gt;Infos Complementares Solicitacao Calculo&lt;/b&gt;&lt;div&gt;&lt;br&gt;&lt;/div&gt;&lt;div&gt;id_infos_compl_solic_calc: string, obg, pk&lt;/div&gt;&lt;div&gt;id_solicitacao_calculo: string, obg, pk&lt;/div&gt;&lt;div&gt;&lt;br&gt;&lt;/div&gt;&lt;div&gt;id_usuario_criacao: int, obg, fk&lt;/div&gt;&lt;div&gt;dt_criacao: date, obg&lt;/div&gt;&lt;div&gt;id_usuario_alteracao: int, fk&lt;/div&gt;&lt;div&gt;dt_alteracao: date&lt;/div&gt;&lt;div&gt;&lt;span style=&quot;background-color: initial;&quot;&gt;id_usuario_exclusao: int, fk&lt;/span&gt;&lt;br&gt;&lt;/div&gt;&lt;div&gt;dt_exclusao: date&lt;/div&gt;&lt;div&gt;&lt;br&gt;&lt;/div&gt;&lt;div&gt;&lt;div&gt;dados: json, obg&lt;/div&gt;&lt;/div&gt;" style="rounded=0;whiteSpace=wrap;html=1;align=left;" vertex="1" parent="1">
          <mxGeometry x="270" y="330" width="270" height="205" as="geometry" />
        </mxCell>
        <mxCell id="dNBym5WfTaueK1b-o3n0-12" value="&lt;b&gt;Parametrizacao Template Calculo&lt;/b&gt;&lt;div&gt;&lt;br&gt;&lt;/div&gt;&lt;div&gt;id_param_templ_calculo: string, obg, pk&lt;/div&gt;&lt;div&gt;id_template_calculo: string, obg, fk&lt;/div&gt;&lt;div&gt;&lt;br&gt;&lt;/div&gt;&lt;div&gt;id_usuario_criacao: int, obg, fk&lt;/div&gt;&lt;div&gt;dt_criacao: date, obg&lt;/div&gt;&lt;div&gt;id_usuario_alteracao: int, fk&lt;/div&gt;&lt;div&gt;dt_alteracao: date&lt;/div&gt;&lt;div&gt;&lt;span style=&quot;background-color: initial;&quot;&gt;id_usuario_exclusao: int, fk&lt;/span&gt;&lt;br&gt;&lt;/div&gt;&lt;div&gt;dt_exclusao: date&lt;/div&gt;&lt;div&gt;&lt;br&gt;&lt;/div&gt;&lt;div&gt;&lt;div&gt;&lt;span style=&quot;background-color: initial;&quot;&gt;parametros: json, obg&lt;/span&gt;&lt;br&gt;&lt;/div&gt;&lt;/div&gt;" style="rounded=0;whiteSpace=wrap;html=1;align=left;" vertex="1" parent="1">
          <mxGeometry x="20" y="570" width="220" height="210" as="geometry" />
        </mxCell>
        <mxCell id="dNBym5WfTaueK1b-o3n0-13" value="&lt;b&gt;Parametrizacao Cross&lt;/b&gt;&lt;div&gt;&lt;br&gt;&lt;/div&gt;&lt;div&gt;id_param_cross: int, obg, pk&lt;/div&gt;&lt;div&gt;id_grupo_calculo: int, fk&lt;/div&gt;&lt;div&gt;id_modulo_calculo: int, fk&lt;/div&gt;&lt;div&gt;&lt;br&gt;&lt;/div&gt;&lt;div&gt;id_usuario_criacao: int, obg, fk&lt;/div&gt;&lt;div&gt;dt_criacao: date, obg&lt;/div&gt;&lt;div&gt;id_usuario_alteracao: int, fk&lt;/div&gt;&lt;div&gt;dt_alteracao: date&lt;/div&gt;&lt;div&gt;&lt;span style=&quot;background-color: initial;&quot;&gt;id_usuario_exclusao: int, fk&lt;/span&gt;&lt;br&gt;&lt;/div&gt;&lt;div&gt;dt_exclusao: date&lt;/div&gt;&lt;div&gt;&lt;br&gt;&lt;/div&gt;&lt;div&gt;&lt;div&gt;&lt;span style=&quot;background-color: initial;&quot;&gt;ds_chave: string, obg&lt;/span&gt;&lt;br&gt;&lt;/div&gt;&lt;/div&gt;&lt;div&gt;&lt;span style=&quot;background-color: initial;&quot;&gt;ds_valor: string, obg,&lt;/span&gt;&lt;/div&gt;&lt;div&gt;id_tipo: int, obg, fk (int, bool, string, etc)&lt;/div&gt;" style="rounded=0;whiteSpace=wrap;html=1;align=left;" vertex="1" parent="1">
          <mxGeometry x="270" y="570" width="220" height="250" as="geometry" />
        </mxCell>
        <mxCell id="dNBym5WfTaueK1b-o3n0-14" value="&lt;b&gt;Parametrizacao Tipo Dominio&lt;/b&gt;&lt;div&gt;&lt;br&gt;&lt;/div&gt;&lt;div&gt;id_param_tipo_dominio: int, obg, pk&lt;/div&gt;&lt;div&gt;&lt;br&gt;&lt;/div&gt;&lt;div&gt;id_usuario_criacao: int, obg, fk&lt;/div&gt;&lt;div&gt;dt_criacao: date, obg&lt;/div&gt;&lt;div&gt;id_usuario_alteracao: int, fk&lt;/div&gt;&lt;div&gt;dt_alteracao: date&lt;/div&gt;&lt;div&gt;&lt;span style=&quot;background-color: initial;&quot;&gt;id_usuario_exclusao: int, fk&lt;/span&gt;&lt;br&gt;&lt;/div&gt;&lt;div&gt;dt_exclusao: date&lt;/div&gt;&lt;div&gt;&lt;br&gt;&lt;/div&gt;&lt;div&gt;&lt;div&gt;ds_tipo_dominio: string, obg&lt;/div&gt;&lt;/div&gt;" style="rounded=0;whiteSpace=wrap;html=1;align=left;" vertex="1" parent="1">
          <mxGeometry x="540" y="570" width="200" height="190" as="geometry" />
        </mxCell>
        <mxCell id="dNBym5WfTaueK1b-o3n0-15" value="&lt;b&gt;Parametrizacao Dominio&lt;/b&gt;&lt;div&gt;&lt;br&gt;&lt;/div&gt;&lt;div&gt;id_param_dominio: int, obg, pk&lt;/div&gt;&lt;div&gt;id_param_tipo_dominio: int, obg, fk&lt;/div&gt;&lt;div&gt;&lt;br&gt;&lt;/div&gt;&lt;div&gt;id_usuario_criacao: int, obg, fk&lt;/div&gt;&lt;div&gt;dt_criacao: date, obg&lt;/div&gt;&lt;div&gt;id_usuario_alteracao: int, fk&lt;/div&gt;&lt;div&gt;dt_alteracao: date&lt;/div&gt;&lt;div&gt;&lt;span style=&quot;background-color: initial;&quot;&gt;id_usuario_exclusao: int, fk&lt;/span&gt;&lt;br&gt;&lt;/div&gt;&lt;div&gt;dt_exclusao: date&lt;/div&gt;&lt;div&gt;&lt;br&gt;&lt;/div&gt;&lt;div&gt;&lt;div&gt;cd_dominio: int, obg&lt;/div&gt;&lt;div&gt;ds_dominio: string, obg&lt;/div&gt;&lt;/div&gt;" style="rounded=0;whiteSpace=wrap;html=1;align=left;" vertex="1" parent="1">
          <mxGeometry x="540" y="790" width="200" height="220" as="geometry" />
        </mxCell>
        <mxCell id="dNBym5WfTaueK1b-o3n0-16" value="&lt;b&gt;Documento Calculo&lt;/b&gt;&lt;div&gt;&lt;br&gt;&lt;/div&gt;&lt;div&gt;id_documento_calculo: string, obg, pk&lt;/div&gt;&lt;div&gt;id_solicitacao_calculo: string, obg, fk&lt;/div&gt;&lt;div&gt;id_template_documento: string, obg, fk&lt;/div&gt;&lt;div&gt;&lt;span style=&quot;background-color: initial;&quot;&gt;id_status_documento: int, obg, fk&lt;/span&gt;&lt;br&gt;&lt;/div&gt;&lt;div&gt;id_ref_bucket: string&lt;br&gt;&lt;/div&gt;&lt;div&gt;&lt;br&gt;&lt;/div&gt;&lt;div&gt;&lt;div&gt;&lt;span style=&quot;background-color: initial;&quot;&gt;dt_criacao: date, obg&lt;/span&gt;&lt;br&gt;&lt;/div&gt;&lt;div&gt;&lt;span style=&quot;background-color: initial;&quot;&gt;dt_solic_documento: date&lt;/span&gt;&lt;br&gt;&lt;/div&gt;&lt;div&gt;dt_recuperacao_documento: date&lt;span style=&quot;background-color: initial;&quot;&gt;&lt;br&gt;&lt;/span&gt;&lt;/div&gt;&lt;div&gt;&lt;span style=&quot;background-color: initial;&quot;&gt;dt_exclusao: date&lt;/span&gt;&lt;/div&gt;&lt;/div&gt;" style="rounded=0;whiteSpace=wrap;html=1;align=left;" vertex="1" parent="1">
          <mxGeometry x="270" y="870" width="220" height="180" as="geometry" />
        </mxCell>
        <mxCell id="dNBym5WfTaueK1b-o3n0-22" value="" style="sketch=0;points=[[0,0,0],[0.25,0,0],[0.5,0,0],[0.75,0,0],[1,0,0],[0,1,0],[0.25,1,0],[0.5,1,0],[0.75,1,0],[1,1,0],[0,0.25,0],[0,0.5,0],[0,0.75,0],[1,0.25,0],[1,0.5,0],[1,0.75,0]];outlineConnect=0;fontColor=#232F3E;fillColor=#C925D1;strokeColor=#ffffff;dashed=0;verticalLabelPosition=bottom;verticalAlign=top;align=center;html=1;fontSize=12;fontStyle=0;aspect=fixed;shape=mxgraph.aws4.resourceIcon;resIcon=mxgraph.aws4.documentdb_with_mongodb_compatibility;" vertex="1" parent="1">
          <mxGeometry x="220" y="545" width="45" height="45" as="geometry" />
        </mxCell>
        <mxCell id="dNBym5WfTaueK1b-o3n0-24" value="" style="sketch=0;points=[[0,0,0],[0.25,0,0],[0.5,0,0],[0.75,0,0],[1,0,0],[0,1,0],[0.25,1,0],[0.5,1,0],[0.75,1,0],[1,1,0],[0,0.25,0],[0,0.5,0],[0,0.75,0],[1,0.25,0],[1,0.5,0],[1,0.75,0]];outlineConnect=0;fontColor=#232F3E;fillColor=#C925D1;strokeColor=#ffffff;dashed=0;verticalLabelPosition=bottom;verticalAlign=top;align=center;html=1;fontSize=12;fontStyle=0;aspect=fixed;shape=mxgraph.aws4.resourceIcon;resIcon=mxgraph.aws4.documentdb_with_mongodb_compatibility;" vertex="1" parent="1">
          <mxGeometry x="210" y="50" width="45" height="45" as="geometry" />
        </mxCell>
        <mxCell id="dNBym5WfTaueK1b-o3n0-25" value="" style="sketch=0;points=[[0,0,0],[0.25,0,0],[0.5,0,0],[0.75,0,0],[1,0,0],[0,1,0],[0.25,1,0],[0.5,1,0],[0.75,1,0],[1,1,0],[0,0.25,0],[0,0.5,0],[0,0.75,0],[1,0.25,0],[1,0.5,0],[1,0.75,0]];outlineConnect=0;fontColor=#232F3E;fillColor=#C925D1;strokeColor=#ffffff;dashed=0;verticalLabelPosition=bottom;verticalAlign=top;align=center;html=1;fontSize=12;fontStyle=0;aspect=fixed;shape=mxgraph.aws4.resourceIcon;resIcon=mxgraph.aws4.documentdb_with_mongodb_compatibility;" vertex="1" parent="1">
          <mxGeometry x="490" y="50" width="45" height="45" as="geometry" />
        </mxCell>
        <mxCell id="dNBym5WfTaueK1b-o3n0-26" value="" style="sketch=0;points=[[0,0,0],[0.25,0,0],[0.5,0,0],[0.75,0,0],[1,0,0],[0,1,0],[0.25,1,0],[0.5,1,0],[0.75,1,0],[1,1,0],[0,0.25,0],[0,0.5,0],[0,0.75,0],[1,0.25,0],[1,0.5,0],[1,0.75,0]];outlineConnect=0;fontColor=#232F3E;fillColor=#C925D1;strokeColor=#ffffff;dashed=0;verticalLabelPosition=bottom;verticalAlign=top;align=center;html=1;fontSize=12;fontStyle=0;aspect=fixed;shape=mxgraph.aws4.resourceIcon;resIcon=mxgraph.aws4.documentdb_with_mongodb_compatibility;" vertex="1" parent="1">
          <mxGeometry x="760" y="50" width="45" height="45" as="geometry" />
        </mxCell>
        <mxCell id="dNBym5WfTaueK1b-o3n0-27" value="" style="sketch=0;points=[[0,0,0],[0.25,0,0],[0.5,0,0],[0.75,0,0],[1,0,0],[0,1,0],[0.25,1,0],[0.5,1,0],[0.75,1,0],[1,1,0],[0,0.25,0],[0,0.5,0],[0,0.75,0],[1,0.25,0],[1,0.5,0],[1,0.75,0]];outlineConnect=0;fontColor=#232F3E;fillColor=#C925D1;strokeColor=#ffffff;dashed=0;verticalLabelPosition=bottom;verticalAlign=top;align=center;html=1;fontSize=12;fontStyle=0;aspect=fixed;shape=mxgraph.aws4.resourceIcon;resIcon=mxgraph.aws4.documentdb_with_mongodb_compatibility;" vertex="1" parent="1">
          <mxGeometry x="525" y="310" width="45" height="45" as="geometry" />
        </mxCell>
        <mxCell id="dNBym5WfTaueK1b-o3n0-29" value="" style="image;aspect=fixed;html=1;points=[];align=center;fontSize=12;image=img/lib/azure2/databases/Azure_Database_PostgreSQL_Server.svg;" vertex="1" parent="1">
          <mxGeometry x="470" y="545" width="37.5" height="50" as="geometry" />
        </mxCell>
        <mxCell id="dNBym5WfTaueK1b-o3n0-30" value="" style="image;aspect=fixed;html=1;points=[];align=center;fontSize=12;image=img/lib/azure2/databases/Azure_Database_PostgreSQL_Server.svg;" vertex="1" parent="1">
          <mxGeometry x="722.5" y="545" width="37.5" height="50" as="geometry" />
        </mxCell>
        <mxCell id="dNBym5WfTaueK1b-o3n0-31" value="" style="image;aspect=fixed;html=1;points=[];align=center;fontSize=12;image=img/lib/azure2/databases/Azure_Database_PostgreSQL_Server.svg;" vertex="1" parent="1">
          <mxGeometry x="722.5" y="770" width="37.5" height="50" as="geometry" />
        </mxCell>
        <mxCell id="dNBym5WfTaueK1b-o3n0-32" value="&lt;b&gt;Template Documento Calculo&lt;/b&gt;&lt;div&gt;&lt;br&gt;&lt;/div&gt;&lt;div&gt;id_template_doc_calculo: string, obg, pk&lt;/div&gt;&lt;div&gt;id_template_calculo: string, obg, fk&lt;/div&gt;&lt;div&gt;id_template_doc_calc_origem: string, fk&lt;/div&gt;&lt;div&gt;&lt;br&gt;&lt;/div&gt;&lt;div&gt;&lt;div&gt;id_usuario_criacao: int, obg, fk&lt;/div&gt;&lt;div&gt;dt_criacao: date, obg&lt;/div&gt;&lt;div&gt;id_usuario_alteracao: int, fk&lt;/div&gt;&lt;div&gt;dt_alteracao: date&lt;/div&gt;&lt;div&gt;&lt;span style=&quot;background-color: initial;&quot;&gt;id_usuario_exclusao: int, fk&lt;/span&gt;&lt;br&gt;&lt;/div&gt;&lt;div&gt;dt_exclusao: date&lt;/div&gt;&lt;/div&gt;" style="rounded=0;whiteSpace=wrap;html=1;align=left;" vertex="1" parent="1">
          <mxGeometry x="430" y="1097.5" width="230" height="180" as="geometry" />
        </mxCell>
        <mxCell id="dNBym5WfTaueK1b-o3n0-33" value="" style="image;aspect=fixed;html=1;points=[];align=center;fontSize=12;image=img/lib/azure2/databases/Azure_Database_PostgreSQL_Server.svg;" vertex="1" parent="1">
          <mxGeometry x="470" y="840" width="37.5" height="50" as="geometry" />
        </mxCell>
        <mxCell id="dNBym5WfTaueK1b-o3n0-34" value="" style="sketch=0;points=[[0,0,0],[0.25,0,0],[0.5,0,0],[0.75,0,0],[1,0,0],[0,1,0],[0.25,1,0],[0.5,1,0],[0.75,1,0],[1,1,0],[0,0.25,0],[0,0.5,0],[0,0.75,0],[1,0.25,0],[1,0.5,0],[1,0.75,0]];outlineConnect=0;fontColor=#232F3E;fillColor=#C925D1;strokeColor=#ffffff;dashed=0;verticalLabelPosition=bottom;verticalAlign=top;align=center;html=1;fontSize=12;fontStyle=0;aspect=fixed;shape=mxgraph.aws4.resourceIcon;resIcon=mxgraph.aws4.documentdb_with_mongodb_compatibility;" vertex="1" parent="1">
          <mxGeometry x="640" y="1070" width="45" height="45" as="geometry" />
        </mxCell>
        <mxCell id="dNBym5WfTaueK1b-o3n0-35" value="&lt;b&gt;Infos Complementares Doc Calculo&lt;/b&gt;&lt;div&gt;&lt;br&gt;&lt;/div&gt;&lt;div&gt;id_infos_compl_doc_calc: string, obg, pk&lt;/div&gt;&lt;div&gt;id_solicitacao_calculo: string, obg, pk&lt;/div&gt;&lt;div&gt;&lt;br&gt;&lt;/div&gt;&lt;div&gt;id_usuario_criacao: int, obg, fk&lt;/div&gt;&lt;div&gt;dt_criacao: date, obg&lt;/div&gt;&lt;div&gt;id_usuario_alteracao: int, fk&lt;/div&gt;&lt;div&gt;dt_alteracao: date&lt;/div&gt;&lt;div&gt;&lt;span style=&quot;background-color: initial;&quot;&gt;id_usuario_exclusao: int, fk&lt;/span&gt;&lt;br&gt;&lt;/div&gt;&lt;div&gt;dt_exclusao: date&lt;/div&gt;&lt;div&gt;&lt;br&gt;&lt;/div&gt;&lt;div&gt;&lt;div&gt;dados: json, obg&lt;/div&gt;&lt;/div&gt;" style="rounded=0;whiteSpace=wrap;html=1;align=left;" vertex="1" parent="1">
          <mxGeometry x="87.5" y="1090" width="270" height="205" as="geometry" />
        </mxCell>
        <mxCell id="dNBym5WfTaueK1b-o3n0-36" value="" style="sketch=0;points=[[0,0,0],[0.25,0,0],[0.5,0,0],[0.75,0,0],[1,0,0],[0,1,0],[0.25,1,0],[0.5,1,0],[0.75,1,0],[1,1,0],[0,0.25,0],[0,0.5,0],[0,0.75,0],[1,0.25,0],[1,0.5,0],[1,0.75,0]];outlineConnect=0;fontColor=#232F3E;fillColor=#C925D1;strokeColor=#ffffff;dashed=0;verticalLabelPosition=bottom;verticalAlign=top;align=center;html=1;fontSize=12;fontStyle=0;aspect=fixed;shape=mxgraph.aws4.resourceIcon;resIcon=mxgraph.aws4.documentdb_with_mongodb_compatibility;" vertex="1" parent="1">
          <mxGeometry x="332.5" y="1070" width="45" height="45" as="geometry" />
        </mxCell>
      </root>
    </mxGraphModel>
  </diagram>
</mxfile>
